<?xml version="1.0" encoding="utf-8"?>
<!-- Generator: Adobe Illustrator 21.1.0, SVG Export Plug-In . SVG Version: 6.00 Build 0)  -->
<svg version="1.1" id="Layer_1" xmlns="http://www.w3.org/2000/svg" xmlns:xlink="http://www.w3.org/1999/xlink" x="0px" y="0px"
	 viewBox="0 0 18 18" style="enable-background:new 0 0 18 18;" xml:space="preserve">
<style type="text/css">
	.st0{fill:#FFFFFF;}
	.st1{stroke:#1C1B1A;stroke-width:4;stroke-opacity:0.4;}
</style>
<path class="st0" d="M1,0h6c0.6,0,1,0.4,1,1v6c0,0.6-0.4,1-1,1H1C0.4,8,0,7.6,0,7V1C0,0.4,0.4,0,1,0z"/>
<path class="st0" d="M1,0h6c0.6,0,1,0.4,1,1v6c0,0.6-0.4,1-1,1H1C0.4,8,0,7.6,0,7V1C0,0.4,0.4,0,1,0z"/>
<path class="st0" d="M1,0h6c0.6,0,1,0.4,1,1v6c0,0.6-0.4,1-1,1H1C0.4,8,0,7.6,0,7V1C0,0.4,0.4,0,1,0z"/>
<path d="M1,0h6c0.6,0,1,0.4,1,1v6c0,0.6-0.4,1-1,1H1C0.4,8,0,7.6,0,7V1C0,0.4,0.4,0,1,0z"/>
<g id="Canvas">
	<g id="card_view_icon">
		<g id="Rectangle_22">
			<g>
				<path class="st1" d="M1,0h6c0.6,0,1,0.4,1,1v6c0,0.6-0.4,1-1,1H1C0.4,8,0,7.6,0,7V1C0,0.4,0.4,0,1,0z"/>
			</g>
		</g>
		<g id="Rectangle_22_x5F_2">
			<g transform="translate(0 10)">
				<path class="st1" d="M1,0h6c0.6,0,1,0.4,1,1v6c0,0.6-0.4,1-1,1H1C0.4,8,0,7.6,0,7V1C0,0.4,0.4,0,1,0z"/>
			</g>
		</g>
		<g id="Rectangle_22_x5F_3">
			<g transform="translate(10 0)">
				<path class="st1" d="M1,0h6c0.6,0,1,0.4,1,1v6c0,0.6-0.4,1-1,1H1C0.4,8,0,7.6,0,7V1C0,0.4,0.4,0,1,0z"/>
			</g>
		</g>
		<g id="Rectangle_22_x5F_4">
			<g transform="translate(10 10)">
				<path class="st1" d="M1,0h6c0.6,0,1,0.4,1,1v6c0,0.6-0.4,1-1,1H1C0.4,8,0,7.6,0,7V1C0,0.4,0.4,0,1,0z"/>
			</g>
		</g>
	</g>
</g>
</svg>
