<?xml version="1.0" encoding="utf-8"?>
<!-- Generator: Adobe Illustrator 21.0.2, SVG Export Plug-In . SVG Version: 6.00 Build 0)  -->
<svg version="1.1" id="Слой_1" xmlns="http://www.w3.org/2000/svg" xmlns:xlink="http://www.w3.org/1999/xlink" x="0px" y="0px"
	 viewBox="0 0 18 18" style="enable-background:new 0 0 18 18;" xml:space="preserve">
<path d="M6,2v4H2V2H6 M7,0H1C0.4,0,0,0.4,0,1v6c0,0.6,0.4,1,1,1h6c0.6,0,1-0.4,1-1V1C8,0.4,7.6,0,7,0L7,0z"/>
<path d="M6,12v4H2v-4H6 M7,10H1c-0.6,0-1,0.4-1,1v6c0,0.6,0.4,1,1,1h6c0.6,0,1-0.4,1-1v-6C8,10.4,7.6,10,7,10L7,10z"/>
<path d="M16,2v4h-4V2H16 M17,0h-6c-0.6,0-1,0.4-1,1v6c0,0.6,0.4,1,1,1h6c0.6,0,1-0.4,1-1V1C18,0.4,17.6,0,17,0L17,0z"/>
<path d="M16,12v4h-4v-4H16 M17,10h-6c-0.6,0-1,0.4-1,1v6c0,0.6,0.4,1,1,1h6c0.6,0,1-0.4,1-1v-6C18,10.4,17.6,10,17,10L17,10z"/>
</svg>
