<svg width="68" height="11" viewBox="0 0 68 11" version="1.1" xmlns="http://www.w3.org/2000/svg" xmlns:xlink="http://www.w3.org/1999/xlink">
<g id="Canvas" fill="none">
<g id="stars rating">
<g id="Star 2">
<path d="M 6 0L 7.34708 4.1459L 11.7063 4.1459L 8.17963 6.7082L 9.52671 10.8541L 6 8.2918L 2.47329 10.8541L 3.82037 6.7082L 0.293661 4.1459L 4.65292 4.1459L 6 0Z" fill="#FFC000"/>
</g>
<g id="Star 2_2">
<path d="M 6 0L 7.34708 4.1459L 11.7063 4.1459L 8.17963 6.7082L 9.52671 10.8541L 6 8.2918L 2.47329 10.8541L 3.82037 6.7082L 0.293661 4.1459L 4.65292 4.1459L 6 0Z" transform="translate(14 0)" fill="#FFC000"/>
</g>
<g id="Star 2_3">
<path d="M 6 0L 7.34708 4.1459L 11.7063 4.1459L 8.17963 6.7082L 9.52671 10.8541L 6 8.2918L 2.47329 10.8541L 3.82037 6.7082L 0.293661 4.1459L 4.65292 4.1459L 6 0Z" transform="translate(28 0)" fill="#FFC000"/>
</g>
<g id="Star 2_4">
<path d="M 6 0L 7.34708 4.1459L 11.7063 4.1459L 8.17963 6.7082L 9.52671 10.8541L 6 8.2918L 2.47329 10.8541L 3.82037 6.7082L 0.293661 4.1459L 4.65292 4.1459L 6 0Z" transform="translate(42 0)" fill="#FFC000"/>
</g>
<g id="Star 2_5">
<path d="M 6 0L 7.34708 4.1459L 11.7063 4.1459L 8.17963 6.7082L 9.52671 10.8541L 6 8.2918L 2.47329 10.8541L 3.82037 6.7082L 0.293661 4.1459L 4.65292 4.1459L 6 0Z" transform="translate(56 0)" fill="#1C1B1A" fill-opacity="0.15"/>
</g>
</g>
</g>
</svg>

