<?xml version="1.0" encoding="utf-8"?>
<!-- Generator: Adobe Illustrator 21.0.2, SVG Export Plug-In . SVG Version: 6.00 Build 0)  -->
<svg version="1.1" id="Слой_1" xmlns="http://www.w3.org/2000/svg" xmlns:xlink="http://www.w3.org/1999/xlink" x="0px" y="0px"
	 viewBox="0 0 18 17" style="enable-background:new 0 0 18 17;" xml:space="preserve">
<style type="text/css">
	.st0{fill:#999999;}
</style>
<g id="Canvas">
	<g>
		<g id="table_view_icon_8_">
			<g id="Rectangle_24_8_">
				<g>
					<path class="st0" d="M1,0h16c0.6,0,1,0.4,1,1l0,0c0,0.6-0.4,1-1,1H1C0.4,2,0,1.6,0,1l0,0C0,0.4,0.4,0,1,0z"/>
				</g>
			</g>
			<g id="Rectangle_24_x5F_2_8_">
				<g>
					<path class="st0" d="M1,5h16c0.6,0,1,0.4,1,1l0,0c0,0.6-0.4,1-1,1H1C0.4,7,0,6.6,0,6l0,0C0,5.4,0.4,5,1,5z"/>
				</g>
			</g>
			<g id="Rectangle_24_x5F_3_8_">
				<g>
					<path class="st0" d="M1,10h16c0.6,0,1,0.4,1,1l0,0c0,0.6-0.4,1-1,1H1c-0.6,0-1-0.4-1-1l0,0C0,10.4,0.4,10,1,10z"/>
				</g>
			</g>
			<g id="Rectangle_24_x5F_4_8_">
				<g>
					<path class="st0" d="M1,15h16c0.6,0,1,0.4,1,1l0,0c0,0.6-0.4,1-1,1H1c-0.6,0-1-0.4-1-1l0,0C0,15.4,0.4,15,1,15z"/>
				</g>
			</g>
		</g>
	</g>
</g>
</svg>
